<svg width="9" height="10" viewBox="0 0 9 10" fill="none" xmlns="http://www.w3.org/2000/svg">
<path d="M8.79822 8.05461L7.40832 6.66455C7.13147 6.38882 6.67301 6.3972 6.38653 6.68379L5.68628 7.38387C5.64204 7.35949 5.59625 7.33402 5.54811 7.307C5.10591 7.06199 4.50069 6.72617 3.86383 6.08883C3.22507 5.45015 2.88894 4.844 2.64317 4.40152C2.61724 4.35465 2.59239 4.30945 2.56785 4.26653L3.03782 3.79726L3.26887 3.56593C3.5558 3.27892 3.56371 2.82059 3.28751 2.54406L1.89761 1.15384C1.62141 0.877693 1.16274 0.88607 0.875815 1.17308L0.484091 1.56705L0.494796 1.57768C0.363446 1.74528 0.253686 1.93858 0.172005 2.14703C0.0967117 2.34545 0.0498342 2.5348 0.0283993 2.72453C-0.155129 4.24602 0.540148 5.63655 2.42704 7.52347C5.0353 10.1315 7.13721 9.93452 7.22789 9.92491C7.42538 9.9013 7.61465 9.85411 7.807 9.77941C8.01364 9.69869 8.20681 9.58908 8.37431 9.45802L8.38287 9.46562L8.77971 9.07702C9.06604 8.79007 9.07429 8.33159 8.79822 8.05461Z" fill="white"/>
</svg>
