<svg width="16" height="18" viewBox="0 0 16 18" fill="none" xmlns="http://www.w3.org/2000/svg">
<path d="M9.86667 14.4333C9.86667 15.8509 11.0158 17 12.4333 17V17C13.8509 17 15 15.8509 15 14.4333V9.38485C15 7.96732 13.8509 6.81818 12.4333 6.81818V6.81818C11.0158 6.81818 9.86667 7.96732 9.86667 9.38485V14.4333Z" stroke="#737373" stroke-width="2" stroke-linecap="round" stroke-linejoin="round"/>
<path d="M1 14.4333C1 15.8509 2.14914 17 3.56667 17V17C4.9842 17 6.13333 15.8509 6.13333 14.4333V3.56667C6.13333 2.14914 4.9842 1 3.56667 1V1C2.14914 1 1 2.14914 1 3.56667V14.4333Z" stroke="#737373" stroke-width="2" stroke-linecap="round" stroke-linejoin="round"/>
</svg>
