<svg width="203" height="28" viewBox="0 0 203 28" fill="none" xmlns="http://www.w3.org/2000/svg">
<path d="M58.0781 27.7879H63.6523V5.36987H70.7354V0.00756836H58.0781V27.7879Z" fill="#990032"/>
<path d="M125.438 5.36987H131.004V27.7879H136.579V5.36987H142.153V0.00756836H125.438V5.36987Z" fill="#990032"/>
<path d="M0 0.00732422V27.7952H5.44967V20.7356H12.5401L16.642 16.7176V4.0253L12.7232 0.00732422H0ZM11.0751 15.3808H5.44967V5.36963H11.0751V15.3808Z" fill="#990032"/>
<path d="M23.7469 0.00732422L19.8281 4.0253V23.7772L23.7469 27.7952H33.5841L37.5102 23.7772V4.0253L33.5841 0.00732422H23.7469ZM31.9287 22.4254H25.395V5.36963H31.9287V22.4254Z" fill="#990032"/>
<path d="M46.6098 5.36963H54.5133V0.00732422H44.9544L41.043 4.0253V23.7697L44.9544 27.7952H54.5573V22.4254H46.6098V5.36963Z" fill="#990032"/>
<path d="M76.3446 0.00732422L72.4258 4.0253V23.7772L76.3446 27.7952H86.1818L90.1079 23.7772V4.0253L86.1818 0.00732422H76.3446ZM84.5337 22.4254H78V5.36963H84.5337V22.4254Z" fill="#990032"/>
<path d="M145.051 0.00732422V27.7952H150.5V20.7356H157.591L161.7 16.7176V4.0253L157.781 0.00732422H145.051ZM156.119 15.3808H150.493V5.36963H156.119V15.3808Z" fill="#990032"/>
<path d="M99.2148 5.36963H107.111V0.00732422H97.5594L93.6406 4.0253V23.7697L97.5594 27.7952H107.155V22.4254H99.2148V5.36963Z" fill="#990032"/>
<path d="M115.41 5.36963H123.306V0.00732422H113.755L109.836 4.0253V23.7697L113.755 27.7952H123.35V22.4254H115.41V5.36963Z" fill="#990032"/>
<path d="M198.986 13.5485L202.948 0.00756836H197.359L194.349 10.4994H193.345L190.328 0.00756836H184.739L188.716 13.6011L184.688 27.7879H190.196L193.397 16.8305H194.29L197.499 27.7879H203L198.986 13.5485Z" fill="#990032"/>
<path d="M177.831 27.7879H183.442L177.853 0H168.331L162.742 27.7879H168.17L169.437 21.1638H176.535L177.831 27.7879ZM170.463 15.9442L172.484 5.3623H173.546L175.568 15.9442H170.463Z" fill="#990032"/>
</svg>
